<svg xmlns="http://www.w3.org/2000/svg" viewBox="0 0 1919.71 631.93"><defs><style>.cls-1{fill:#fff;}</style></defs><g id="katman_2" data-name="katman 2"><g id="katman_1-2" data-name="katman 1"><path class="cls-1" d="M821.52,332.55c0,90.92-71.12,157.91-158.41,157.91s-158.41-67-158.41-157.91c0-91.55,71.13-157.91,158.41-157.91S821.52,241,821.52,332.55Zm-69.34,0c0-56.81-41.22-95.68-89.07-95.68s-89.06,38.87-89.06,95.68c0,56.25,41.22,95.69,89.06,95.69S752.18,388.73,752.18,332.55Z"/><path class="cls-1" d="M1163.26,332.55c0,90.92-71.12,157.91-158.41,157.91s-158.41-67-158.41-157.91c0-91.48,71.12-157.91,158.41-157.91S1163.26,241,1163.26,332.55Zm-69.34,0c0-56.81-41.23-95.68-89.07-95.68s-89.07,38.87-89.07,95.68c0,56.25,41.23,95.69,89.07,95.69S1093.92,388.73,1093.92,332.55Z"/><path class="cls-1" d="M1490.76,184.18v283.5c0,116.62-68.78,164.25-150.08,164.25-76.54,0-122.6-51.19-140-93l60.37-25.13c10.75,25.7,37.09,56,79.53,56,52,0,84.29-32.11,84.29-92.56V454.51h-2.42c-15.52,19.15-45.42,35.88-83.15,35.88-79,0-151.29-68.77-151.29-157.27,0-89.13,72.33-158.48,151.29-158.48,37.66,0,67.56,16.73,83.15,35.31h2.42v-25.7h65.86Zm-61,148.94c0-55.6-37.09-96.25-84.29-96.25-47.84,0-87.93,40.65-87.93,96.25,0,55,40.09,95.12,87.93,95.12C1392.72,428.24,1429.81,388.16,1429.81,333.12Z"/><path class="cls-1" d="M1599.33,18V480.78h-67.64V18Z"/><path class="cls-1" d="M1862.89,384.53l53.83,35.88c-17.37,25.7-59.24,70-131.57,70-89.71,0-156.7-69.34-156.7-157.91,0-93.9,67.56-157.91,148.94-157.91,81.95,0,122,65.22,135.13,100.46l7.19,17.94-211.1,87.43c16.17,31.68,41.3,47.84,76.54,47.84s59.8-17.37,77.75-43.71Zm-165.67-56.82,141.11-58.59c-7.76-19.72-31.11-33.46-58.59-33.46C1744.5,235.66,1695.44,266.77,1697.22,327.71Z"/><path class="cls-1" d="M248.69,291.47v-67H474.45a222.62,222.62,0,0,1,3.34,40.44c0,50.26-13.74,112.41-58,156.7-43.08,44.85-98.11,68.77-171,68.77C113.63,490.39,0,380.33,0,245.2S113.63,0,248.76,0c74.75,0,128,29.33,168,67.56L369.5,114.84C340.81,87.93,301.94,67,248.69,67,150,67,72.83,146.52,72.83,245.2S150,423.4,248.69,423.4c64,0,100.45-25.7,123.8-49.06,18.94-18.93,31.4-46,36.31-82.94Z"/></g></g></svg>