<svg xmlns="http://www.w3.org/2000/svg" viewBox="0 0 1896.35 575.67"><defs><style>.cls-1{fill:#fff;}</style></defs><g id="katman_2" data-name="katman 2"><g id="katman_1-2" data-name="katman 1"><g id="logo-loitech"><g id="layer1"><path id="path3008" class="cls-1" d="M0,407.19V8.43H70.05V407.19Z"/><path id="path3010" class="cls-1" d="M249.35,117.9c-89.81,0-152,69-152,148.09,0,88.21,67.61,149,152.66,149,80.71,0,150.75-59.65,150.75-149.17,0-75.28-58-147.9-151.45-147.9Zm-.82,67.57c47,0,81.6,36.59,81.6,80.77a80.72,80.72,0,0,1-80.33,81c-49.84,0-81.21-39.51-81.21-80.9,0-45.37,35.41-80.9,79.94-80.9Z"/><path id="path3012" class="cls-1" d="M576.8,117.9c-89.81,0-152,69-152,148.09,0,88.21,67.61,149,152.66,149,80.71,0,150.75-59.65,150.75-149.17,0-52.72-22.83-76.11-22.83-76.11L724.84,183V126.19H625.35a150,150,0,0,0-48.55-8.29ZM576,185.47c47,0,81.6,36.59,81.6,80.77a80.71,80.71,0,0,1-80.32,81c-49.85,0-81.22-39.51-81.22-80.9,0-45.37,35.42-80.9,80-80.9Z"/><path id="path3014" class="cls-1" d="M657.08,426.69c0,46.85-38.15,81.28-80.33,81.28-49.85,0-81.34-39.89-81.34-81.28H424.35c0,88.21,67.61,149,152.65,149,80.72,0,150.76-59.46,150.76-149Z"/><path id="path3016" class="cls-1" d="M756.31,407.19v-281h70v281Z"/><path id="path3018" class="cls-1" d="M894.37,407.19V189.13H856.81V126.19h37.56V39.9h70v86.29H1003v62.94H964.42V407.19Z"/><path id="path3020" class="cls-1" d="M837.58,46.39A46.39,46.39,0,1,1,791.19,0a46.39,46.39,0,0,1,46.39,46.39Z"/><path id="path3022" class="cls-1" d="M1160.48,117.71c-90.24,0-148.41,69.09-148.41,150.82,0,84.46,58.36,146.63,149.87,146.63,85.35,0,127.34-53.3,127.34-53.3L1242.45,315s-35.35,38.13-79.63,38.13c-36.9,0-66.41-20.6-76.71-58.37h218.27V275.44c0-77-44.55-157.73-143.9-157.73Zm-2.22,61.67c32.26,0,65.26,17.27,72.64,58.5H1084.21c5.81-29,31.17-58.5,74-58.5Z"/><path id="path3024" class="cls-1" d="M1479.59,415.21c-90.49,0-152.15-68.93-152.15-150.19,0-83.86,69.68-147.35,151.86-147.35,79.43,0,120.1,56.08,120.1,56.08l-48.87,48.64s-28.3-36.57-71.56-36.57c-48,0-80.74,36.68-80.74,80.28,0,46,34.88,81.36,80.2,81.36,44,0,72-36.52,72-36.52l49.35,48.62s-40.26,55.64-120.23,55.64Z"/><path id="path3026" class="cls-1" d="M1625.3,407.4V7.42h70v147s26.82-36.71,85.16-36.71c73.35,0,115.84,54.52,115.84,124.26V407.4h-70V252.52c0-46.85-29.16-66.29-61.47-66.29-36.82,0-69.48,21-69.48,69.91V407.4Z"/></g></g></g></g></svg>