<svg xmlns="http://www.w3.org/2000/svg" xmlns:xlink="http://www.w3.org/1999/xlink" viewBox="0 0 1896 571.37"><defs><style>.cls-1{fill:none;}.cls-2{clip-path:url(#clip-path);}.cls-3{fill:#fff;fill-rule:evenodd;}</style><clipPath id="clip-path" transform="translate(-2 -2)"><rect class="cls-1" width="1900" height="574"/></clipPath></defs><g id="katman_2" data-name="katman 2"><g id="katman_1-2" data-name="katman 1"><g class="cls-2"><g id="logo-amazon"><g class="cls-2"><g id="logo-amazon-2"><g id="Group_1" data-name="Group 1"><g id="Amazon_logo" data-name="Amazon logo"><path id="path8" class="cls-3" d="M1178.24,448.83C1068.06,530,908.36,573.37,770.86,573.37c-192.8,0-366.36-71.31-497.67-189.9-10.31-9.32-1.07-22,11.31-14.77,141.71,82.44,316.93,132,497.92,132,122.06,0,256.34-25.26,379.81-77.66,18.65-7.93,34.25,12.21,16,25.75" transform="translate(-2 -2)"/><path id="path10" class="cls-3" d="M1224.05,396.42c-14-18-93.1-8.5-128.59-4.29-10.81,1.32-12.46-8.09-2.72-14.86,63-44.32,166.3-31.53,178.35-16.67s-3.14,118.52-62.31,167.95c-9.08,7.59-17.75,3.55-13.7-6.52,13.29-33.18,43.08-107.54,29-125.61" transform="translate(-2 -2)"/><path id="path12" class="cls-3" d="M1097.94,64.39V21.31a10.62,10.62,0,0,1,10.35-10.89h193.42c6.19,0,11.14,4.45,11.14,10.89V58.2c-.08,6.19-5.28,14.28-14.53,27.07L1198.38,228c37.14-.91,76.34,4.62,110,23.6,7.6,4.29,9.66,10.56,10.24,16.75v46c0,6.27-6.94,13.62-14.2,9.82-59.34-31.11-138.16-34.5-203.77.33-6.69,3.63-13.7-3.63-13.7-9.9V270.89c0-7,.08-19,7.1-29.63l115.79-166H1109.08c-6.19,0-11.14-4.38-11.14-10.82" transform="translate(-2 -2)"/><path id="path14" class="cls-3" d="M394.36,333.2H335.68a11.09,11.09,0,0,1-10.49-10V22.06a11,11,0,0,1,11.22-10.82h54.81a11.07,11.07,0,0,1,10.65,10.07V60.68h1.07c14.28-38,41.1-55.79,77.25-55.79,36.73,0,59.67,17.74,76.18,55.79,14.2-38,46.46-55.79,81-55.79,24.6,0,51.5,10.15,67.93,32.93,18.57,25.34,14.77,62.14,14.77,94.41L720,322.3a11.1,11.1,0,0,1-11.27,10.9H650.12a11.15,11.15,0,0,1-10.56-10.9V162.69c0-12.71,1.15-44.4-1.66-56.45C633.53,86,620.4,80.32,603.4,80.32c-14.2,0-29,9.49-35.07,24.68s-5.45,40.6-5.45,57.69V322.31a11.08,11.08,0,0,1-11.27,10.89H493a11.1,11.1,0,0,1-10.57-10.89l-.08-159.62c0-33.59,5.53-83-36.15-83-42.17,0-40.52,48.2-40.52,83V322.31a11.08,11.08,0,0,1-11.27,10.89h0" transform="translate(-2 -2)"/><path id="path16" class="cls-3" d="M1478.91,4.89c87.07,0,134.2,74.77,134.2,169.85,0,91.86-52.08,164.73-134.2,164.73-85.5,0-132.06-74.77-132.06-168,0-93.76,47.13-166.63,132.06-166.63m.5,61.48c-43.25,0-46,58.93-46,95.66s-.58,115.38,45.47,115.38c45.48,0,47.62-63.39,47.62-102,0-25.42-1.07-55.79-8.75-79.89-6.6-21-19.72-29.14-38.37-29.14" transform="translate(-2 -2)"/><path id="path18" class="cls-3" d="M1726,333.2h-58.43A11.15,11.15,0,0,1,1657,322.31l-.09-301.24a11.1,11.1,0,0,1,11.31-9.82h54.39a11.22,11.22,0,0,1,10.48,8.42V65.72h1.07c16.43-41.19,39.45-60.83,80-60.83,26.32,0,52,9.49,68.5,35.49C1898,64.48,1898,105,1898,134.13V323.71a11.28,11.28,0,0,1-11.31,9.49h-58.85a11.11,11.11,0,0,1-10.4-9.49V160.13c0-32.93,3.8-81.13-36.72-81.13-14.28,0-27.4,9.58-33.92,24.1-8.26,18.4-9.33,36.73-9.33,57V322.31A11.27,11.27,0,0,1,1726,333.2" transform="translate(-2 -2)"/><path id="path28" class="cls-3" d="M944.18,189.35c0,22.86.58,41.92-11,62.23-9.32,16.5-24.18,26.65-40.6,26.65-22.53,0-35.73-17.16-35.73-42.5,0-50,44.81-59.09,87.32-59.09v12.71m59.17,143a12.26,12.26,0,0,1-13.86,1.4c-19.48-16.18-23-23.69-33.68-39.12-32.18,32.85-55.05,42.67-96.72,42.67-49.44,0-87.82-30.46-87.82-91.45,0-47.62,25.75-80,62.56-95.9,31.86-14,76.34-16.5,110.35-20.38V122c0-14,1.07-30.45-7.18-42.5-7.1-10.81-20.8-15.27-32.93-15.27-22.37,0-42.26,11.47-47.13,35.24-1,5.29-4.87,10.49-10.23,10.73l-56.87-6.11c-4.78-1.07-10.15-5-8.75-12.3C794.14,22.8,856.53,2,912.32,2c28.56,0,65.86,7.59,88.39,29.22,28.56,26.65,25.84,62.22,25.84,100.93V223.6c0,27.48,11.39,39.53,22.12,54.39,3.71,5.28,4.53,11.63-.25,15.6-12,10-33.26,28.55-45,39l-.08-.16" transform="translate(-2 -2)"/><path id="path30" class="cls-3" d="M174.9,189.35c0,22.86.58,41.92-11,62.23-9.32,16.5-24.1,26.65-40.6,26.65-22.53,0-35.66-17.16-35.66-42.5,0-50,44.82-59.09,87.24-59.09v12.71m59.17,143a12.26,12.26,0,0,1-13.86,1.4c-19.48-16.18-23-23.69-33.67-39.12-32.19,32.85-55,42.67-96.73,42.67C40.46,337.33,2,306.87,2,245.88c0-47.62,25.83-80,62.56-95.9,31.86-14,76.34-16.5,110.34-20.38V122c0-14,1.07-30.45-7.1-42.5-7.18-10.81-20.88-15.27-32.93-15.27-22.37,0-42.34,11.47-47.21,35.24-1,5.29-4.87,10.49-10.15,10.73l-56.94-6.11c-4.79-1.07-10.07-5-8.75-12.3C24.94,22.8,87.25,2,143.05,2c28.55,0,65.86,7.59,88.39,29.22C260,57.87,257.27,93.44,257.27,132.15V223.6c0,27.48,11.39,39.53,22.12,54.39,3.8,5.28,4.62,11.63-.17,15.6-12,10-33.26,28.55-45,39l-.16-.16" transform="translate(-2 -2)"/></g></g></g></g></g></g></g></g></svg>