<svg xmlns="http://www.w3.org/2000/svg" viewBox="0 0 1809.76 458.71"><defs><style>.cls-1,.cls-2,.cls-3{fill:#fff;}.cls-2,.cls-3{isolation:isolate;}.cls-2{opacity:0.68;}.cls-3{opacity:0.7;}</style></defs><g id="katman_2" data-name="katman 2"><g id="katman_1-2" data-name="katman 1"><g id="Brands"><g id="_992px" data-name=" 992px"><g id="LOGOS"><g id="ppcom-white-copy-2"><g id="Group"><path id="Shape" class="cls-1" d="M1374.56,102.29H1270.5a14.44,14.44,0,0,0-14.28,12.21l-42.14,266.72a8.67,8.67,0,0,0,7.21,9.92,8.89,8.89,0,0,0,1.36.1h53.42a10.1,10.1,0,0,0,10-8.54L1298,307.09a14.46,14.46,0,0,1,14.29-12.21h32.94c68.56,0,108.13-33.17,118.47-98.87a80,80,0,0,0-13.21-67.14C1435.62,111.49,1409.38,102.29,1374.56,102.29Zm12,97.45c-5.68,37.35-34.22,37.35-61.82,37.35H1309l11-69.72a8.7,8.7,0,0,1,8.58-7.32h7.23c18.8,0,36.54,0,45.69,10.7a34.7,34.7,0,0,1,5,29Z"/><path id="Shape-2" class="cls-1" d="M632.13,102.29H528.07a14.46,14.46,0,0,0-14.28,12.21L471.65,381.22a8.67,8.67,0,0,0,7.21,9.92,8.89,8.89,0,0,0,1.36.1h49.72a14.47,14.47,0,0,0,14.29-12.19l11.36-72a14.46,14.46,0,0,1,14.29-12.21H602.8c68.56,0,108.14-33.17,118.47-98.87a80,80,0,0,0-13.21-67.14C693.2,111.49,666.92,102.29,632.13,102.29Zm12,97.45c-5.68,37.35-34.22,37.35-61.82,37.35h-15.7l11-69.72a8.68,8.68,0,0,1,8.57-7.32h7.21c18.78,0,36.53,0,45.68,10.7a34.72,34.72,0,0,1,5.06,29Z"/><path id="Shape-3" class="cls-1" d="M943.25,198.59H893.42a8.69,8.69,0,0,0-8.58,7.31l-2.19,13.93-3.49-5c-10.8-15.66-34.85-20.9-58.88-20.9A114.6,114.6,0,0,0,709,294.09a93.94,93.94,0,0,0,18.55,76.52,78,78,0,0,0,62.76,25.32,95.44,95.44,0,0,0,69-28.49l-2.23,13.84a8.67,8.67,0,0,0,7.21,9.92,8.91,8.91,0,0,0,1.36.11h44.9a14.47,14.47,0,0,0,14.29-12.19l27-170.62a8.68,8.68,0,0,0-7.34-9.83A10.16,10.16,0,0,0,943.25,198.59Zm-69.47,97a55.57,55.57,0,0,1-56.26,47.57,38.6,38.6,0,0,1-41.28-48.43,55.78,55.78,0,0,1,55.85-48,42,42,0,0,1,33.23,13.57,42.94,42.94,0,0,1,8.47,35.22Z"/><path id="Shape-4" class="cls-1" d="M1685.68,198.59h-49.83a8.68,8.68,0,0,0-8.58,7.31l-2.19,13.93-3.47-5.11c-10.8-15.66-34.85-20.89-58.89-20.89A114.57,114.57,0,0,0,1451.48,294,94,94,0,0,0,1470,370.55a78.06,78.06,0,0,0,62.77,25.32,95.46,95.46,0,0,0,69-28.5l-2.23,13.85a8.67,8.67,0,0,0,7.21,9.92,8.8,8.8,0,0,0,1.36.1H1653a14.46,14.46,0,0,0,14.29-12.19l27-170.55a8.68,8.68,0,0,0-7.34-9.83A7.62,7.62,0,0,0,1685.68,198.59Zm-69.46,97A55.55,55.55,0,0,1,1560,343.11a38.6,38.6,0,0,1-41.3-48.43,55.77,55.77,0,0,1,55.86-47.9,42,42,0,0,1,33.24,13.58,42.92,42.92,0,0,1,8.45,35.1Z"/><path id="Shape-5" class="cls-1" d="M1208.68,198.59h-50a14.48,14.48,0,0,0-12,6.34l-69.1,101.71-29.31-97.81a14.46,14.46,0,0,0-13.85-10.31H985.17a8.68,8.68,0,0,0-8.73,8.62,9,9,0,0,0,.47,2.86l55.17,161.87L980.2,445a8.67,8.67,0,0,0,7.08,13.69h50a14.45,14.45,0,0,0,11.89-6.22l166.64-240.36a8.66,8.66,0,0,0-7.18-13.54Z"/><path id="Shape-6" class="cls-1" d="M1744.43,109.62l-42.71,271.6a8.67,8.67,0,0,0,7.21,9.92,8.8,8.8,0,0,0,1.36.1h42.94a14.47,14.47,0,0,0,14.29-12.19l42.14-266.73a8.68,8.68,0,0,0-7.22-9.92,8.81,8.81,0,0,0-1.36-.11H1753A8.67,8.67,0,0,0,1744.43,109.62Z"/></g><g id="Group-2"><path id="Shape-7" class="cls-2" d="M349.24,116.53A91.31,91.31,0,0,0,330,34.59C308.78,10.37,270.51,0,221.55,0H79.5A20.35,20.35,0,0,0,59.35,17.23L.15,393.6a12.22,12.22,0,0,0,10.16,14,12.07,12.07,0,0,0,1.9.15H100l-6.06,38.52a10.69,10.69,0,0,0,8.87,12.24,10.35,10.35,0,0,0,1.67.13h74A17.8,17.8,0,0,0,196,443.57l.73-3.78,13.92-88.62.9-4.95a17.8,17.8,0,0,1,17.57-15.07h11.07c71.65,0,127.74-29.18,144.14-113.62,6.86-35.28,3.31-64.73-14.86-85.43a70.79,70.79,0,0,0-20.25-15.64"/><path id="Shape-8" class="cls-3" d="M349.24,116.53A91.31,91.31,0,0,0,330,34.59C308.78,10.37,270.51,0,221.55,0H79.5A20.35,20.35,0,0,0,59.35,17.23L.15,393.6a12.22,12.22,0,0,0,10.16,14,12.07,12.07,0,0,0,1.9.15H100l22-140.16-.67,4.39a20.28,20.28,0,0,1,20-17.21H183c81.9,0,146-33.38,164.76-129.89.56-2.86,1-5.62,1.46-8.26"/><path id="Shape-9" class="cls-1" d="M145.67,117a17.77,17.77,0,0,1,17.57-15.06H274.65a231.87,231.87,0,0,1,36.75,2.69c3.22.52,6.34,1.12,9.38,1.8s6,1.44,8.84,2.26c1.44.42,2.82.86,4.21,1.32a100.28,100.28,0,0,1,15.41,6.61A91.32,91.32,0,0,0,330,34.67C308.78,10.37,270.51,0,221.55,0H79.5A20.35,20.35,0,0,0,59.35,17.23L.15,393.6a12.22,12.22,0,0,0,10.16,14,12.07,12.07,0,0,0,1.9.15H100l22-140.16Z"/></g></g></g></g></g></g></g></svg>