<svg xmlns="http://www.w3.org/2000/svg" viewBox="0 0 1896.25 410.03"><defs><style>.cls-1,.cls-2{fill:#fff;}.cls-2{fill-rule:evenodd;}</style></defs><g id="katman_2" data-name="katman 2"><g id="katman_1-2" data-name="katman 1"><g id="logo-monday"><g id="g853"><g id="g847"><path id="path841" class="cls-1" d="M46.71,324.08A46.87,46.87,0,0,1,5.85,300.37,45.32,45.32,0,0,1,7.13,253.7L91.27,121.56A47.13,47.13,0,0,1,173,123.77a45.28,45.28,0,0,1-2.53,46.6L86.39,302.51A46.88,46.88,0,0,1,46.71,324.08Z"/><path id="path843" class="cls-1" d="M191,324.09a46.75,46.75,0,0,1-40.79-23.66,45.19,45.19,0,0,1,1.28-46.55l84-131.83a47.08,47.08,0,0,1,82,1.87,45.2,45.2,0,0,1-3,46.81l-84,131.84A46.85,46.85,0,0,1,191,324.09Z"/><ellipse id="ellipse845" class="cls-1" cx="332.14" cy="282.78" rx="43.32" ry="42.41"/></g><path id="path851" class="cls-2" d="M1896.25,109.75H1833l-44.37,114.4-44.15-114.4h-63.3l77,180.77L1710.22,410h62.85Zm-385,100.54c0,28.88,25.25,47.89,50,47.89,24.37,0,48.31-17.69,48.31-47.9s-23.94-47.92-48.31-47.92c-24.8,0-50,19-50,47.92Zm98.36,100.94V288.36c-12.84,19.43-42.79,26.78-58.16,26.78-50.88,0-101.77-40.12-101.77-104.86s50.88-104.85,101.77-104.85c12.82,0,42.77,4.28,58.16,26.74V109.82h59V311.27l-59,0Zm-176.73,0h-59v-25c-9.85,18.54-33.76,29.34-58.58,29.34-51.32,0-96.66-41-96.66-104.45,0-64.66,45.34-105.7,96.66-105.7,24.78,0,48.76,10.34,58.58,28.9V0h59Zm-60.29-101.4c0-30.2-21.8-47.9-46.17-47.9-25.25,0-46.21,19-46.21,47.9,0,29.85,21,48.74,46.19,48.74,24.83,0,46.19-19.82,46.19-48.74Zm-299.86-5.2c0-30.63,15.83-41,36.78-41,20.09,0,34.64,13.37,34.64,40.11V311.2h59.43V190.82c0-57.36-28.24-85.42-73.14-85.42-23.52,0-47,13.37-57.73,33.65v-29.3h-59.4V311.2h59.42Zm-180.11,110c-56.44,0-103.52-41.41-103.52-104.84s47-104.47,103.52-104.47,103.93,41,103.93,104.47S949.06,314.67,892.62,314.67Zm0-58.65C917.4,256,938,237.85,938,209.83c0-27.19-20.53-45.75-45.33-45.75a44.06,44.06,0,0,0-32.13,13.21,44.82,44.82,0,0,0-12.78,32.54c0,28.06,20.54,46.17,44.91,46.17ZM682.54,163.66c17.52,0,32.93,13.81,32.93,40.11V311.23h59V196.82c0-60.83-29.58-91.46-77-91.46-14.09,0-40.61,4.28-59.87,35.8-11.12-23.3-32.5-35.39-64.09-35.39A57.11,57.11,0,0,0,521.38,139V109.76H461.91V311.21h59.42V204.62c0-30.62,16.68-41,34.64-41,17.11,0,32.48,13.37,32.92,38.83V311.21h59.44V204.62c0-29.29,15.4-41,34.21-41Z"/></g></g></g></g></svg>