<svg xmlns="http://www.w3.org/2000/svg" xmlns:xlink="http://www.w3.org/1999/xlink" viewBox="0 0 1896.04 534"><defs><style>.cls-1{fill:none;}.cls-2{clip-path:url(#clip-path);}.cls-3{fill:#353642;}.cls-4{fill:#fff;}</style><clipPath id="clip-path" transform="translate(-1.96 -2)"><rect class="cls-1" width="1900" height="538"/></clipPath></defs><g id="katman_2" data-name="katman 2"><g id="katman_1-2" data-name="katman 1"><g class="cls-2"><g id="logo-jquery"><g id="JQuery_logo_text" data-name="JQuery logo text"><path id="Path_1" data-name="Path 1" class="cls-3" d="M543.72,210.59v0l-15.14,53.69,15.14-53.66Z" transform="translate(-1.96 -2)"/><path id="Path_2" data-name="Path 2" class="cls-3" d="M621.62,327.11l-16.69-.1Z" transform="translate(-1.96 -2)"/><path id="Path_3" data-name="Path 3" class="cls-3" d="M617.33,407.25h0l-100,.37,100-.37Z" transform="translate(-1.96 -2)"/><path id="Path_4" data-name="Path 4" class="cls-3" d="M638.3,327.21l-16.7-.1Z" transform="translate(-1.96 -2)"/><path id="Path_5" data-name="Path 5" class="cls-3" d="M626.1,400.45,643.52,334,626.1,400.46Z" transform="translate(-1.96 -2)"/><path id="Path_6" data-name="Path 6" class="cls-3" d="M994.29,94.56,961.84,247.11Z" transform="translate(-1.96 -2)"/><path id="Path_7" data-name="Path 7" class="cls-3" d="M910.88,94.57l-24.64,114,24.64-114Z" transform="translate(-1.96 -2)"/><path id="Path_8" data-name="Path 8" class="cls-4" d="M988.73,87.68H919.34a9.13,9.13,0,0,0-8.5,6.85l-24.63,114-24.63,114a9.11,9.11,0,0,1-8.49,6.84H804c-48.59,0-43-33.6-33-79.65.1-.46.2-.91.3-1.39l1.1-5.8c.06-.37.14-.75.2-1.09l2.21-11.82,2.38-12.66c.72-3.82,1.82-9.4,2.54-12.91l11.2-54.71,11.2-54.72a5.51,5.51,0,0,0-4-6.71,5.58,5.58,0,0,0-1.63-.17H725.27a9,9,0,0,0-8.45,6.86L701.5,167.2l-15.31,72.65a.36.36,0,0,0,0,.11l-1.43,6.75c-17.64,80.53-13,157.33,82.9,159.73,1.57.05,2.78.06,2.78.06H920.91a9.1,9.1,0,0,0,8.47-6.86L961.83,247.1,994.28,94.55a5.47,5.47,0,0,0-3.86-6.69,6,6,0,0,0-1.69-.18Z" transform="translate(-1.96 -2)"/><path id="Path_9" data-name="Path 9" class="cls-3" d="M1265.55,330.08a5.5,5.5,0,0,1,5.77,5.22,5.33,5.33,0,0,1-.17,1.64l-6.73,32.93" transform="translate(-1.96 -2)"/><path id="Path_10" data-name="Path 10" class="cls-3" d="M1257.7,402.81l6.73-32.95-6.74,33h0Z" transform="translate(-1.96 -2)"/><path id="Path_11" data-name="Path 11" class="cls-3" d="M1249.24,409.74h0c-20.42.17-81.79.63-127.91.63,56.13,0,127.87-.62,127.87-.62Z" transform="translate(-1.96 -2)"/><path id="Path_12" data-name="Path 12" class="cls-3" d="M1080,287.68c-.06-3.61,4-9.82,7.9-9.82l-8.66-.15c-3.91,39.28.76,10,.76,10Z" transform="translate(-1.96 -2)"/><path id="Path_13" data-name="Path 13" class="cls-3" d="M1127.69,410.35h0Z" transform="translate(-1.96 -2)"/><path id="Path_14" data-name="Path 14" class="cls-3" d="M1265.56,330.08a5.51,5.51,0,0,1,5.77,5.22,5.65,5.65,0,0,1-.17,1.64l-6.74,32.93-1.1,5.37" transform="translate(-1.96 -2)"/><path id="Path_17" data-name="Path 17" class="cls-3" d="M1138.31,410.34h0Z" transform="translate(-1.96 -2)"/><path id="Path_19" data-name="Path 19" class="cls-3" d="M1142.51,410.32h0Z" transform="translate(-1.96 -2)"/><path id="Path_20" data-name="Path 20" class="cls-3" d="M1160.27,410.27l-16.74.06Z" transform="translate(-1.96 -2)"/><path id="Path_21" data-name="Path 21" class="cls-3" d="M1249.29,409.73h0c-15,.12-51.92.4-88.77.54C1197.36,410.14,1234.32,409.85,1249.29,409.73Z" transform="translate(-1.96 -2)"/><path id="Path_22" data-name="Path 22" class="cls-3" d="M1257.7,402.83l5.64-27.59-5.65,27.61v0Z" transform="translate(-1.96 -2)"/><path id="Path_26" data-name="Path 26" class="cls-3" d="M116.52,288.5l10.78-47.78L115,295.34,103.15,351l10.36-48.77c.8-3.77,2.16-9.94,3-13.7Z" transform="translate(-1.96 -2)"/><path id="Path_27" data-name="Path 27" class="cls-4" d="M245.53,86.9h-76.2a9.2,9.2,0,0,0-8.56,6.83l-7.23,31.89-7.23,31.9a5.37,5.37,0,0,0,3.69,6.63,5.06,5.06,0,0,0,1.78.2h76.8a9.13,9.13,0,0,0,8.5-6.84l7-31.89,7-31.87h0a5.41,5.41,0,0,0-3.78-6.65,5.35,5.35,0,0,0-1.73-.19Z" transform="translate(-1.96 -2)"/><path id="Path_28" data-name="Path 28" class="cls-3" d="M228.94,193h0l-22.35,103.4Z" transform="translate(-1.96 -2)"/><path id="Path_29" data-name="Path 29" class="cls-3" d="M7.57,535.5s38.42.5,62.84.5c-18.55,0-49.19-.34-62.87-.5h0Z" transform="translate(-1.96 -2)"/><path id="Path_30" data-name="Path 30" class="cls-3" d="M138.07,193l-10.79,47.78Z" transform="translate(-1.96 -2)"/><path id="Path_31" data-name="Path 31" class="cls-4" d="M223.43,186.06h-76.8a9.2,9.2,0,0,0-8.55,6.84l-10.79,47.78-10.78,47.78c-.85,3.76-2.2,9.93-3,13.7l-10.37,48.77L92.78,399.7c-.8,3.76-2.46,9.84-3.7,13.49,0,0-14.34,42.69-38.47,42.21-1,0-2,0-3-.06L26.73,455h0a9.14,9.14,0,0,0-8.61,6.68l-8,33.48-8,33.47a5.36,5.36,0,0,0,3.6,6.68,5.2,5.2,0,0,0,1.75.22c13.68.17,44.31.51,62.86.51,60.25,0,92-33.38,112.38-129.45L206.6,296.3,229,192.9a5.44,5.44,0,0,0-3.82-6.66,5.51,5.51,0,0,0-1.71-.18Z" transform="translate(-1.96 -2)"/><path id="Path_32" data-name="Path 32" class="cls-3" d="M1314.5,406.48a5.45,5.45,0,0,1-5.54-6.86L1366.74,129" transform="translate(-1.96 -2)"/><path id="Path_33" data-name="Path 33" class="cls-3" d="M1394.8,399.59l23.36-115.51Z" transform="translate(-1.96 -2)"/><path id="Path_34" data-name="Path 34" class="cls-3" d="M1309.8,403c-.47-1.88-.19-6.51.62-10.28l27.42-128.46L1309,399.6a5.44,5.44,0,0,0,5.53,6.86h7c-3.85,0-11.24-1.54-11.71-3.43Z" transform="translate(-1.96 -2)"/><path id="Path_35" data-name="Path 35" class="cls-3" d="M1390.24,404.91c-2.1.85-7,1.54-10.83,1.54h7a8.93,8.93,0,0,0,8.4-6.87l1.39-6.86c-.76,3.77-3.87,11.34-6,12.19Z" transform="translate(-1.96 -2)"/><path id="Path_36" data-name="Path 36" class="cls-3" d="M1406.5,341.84l10.32-51a.3.3,0,0,1,0,.1l-10.3,50.89Z" transform="translate(-1.96 -2)"/><path id="Path_37" data-name="Path 37" class="cls-3" d="M1634.49,147.15l3.18,13.15a5.31,5.31,0,0,1-3.58,6.61,5.11,5.11,0,0,1-1.82.21" transform="translate(-1.96 -2)"/><path id="Path_38" data-name="Path 38" class="cls-3" d="M1396.2,392.73l10.29-50.89Z" transform="translate(-1.96 -2)"/><path id="Path_39" data-name="Path 39" class="cls-3" d="M1631.33,133.68l3.15,13.47Z" transform="translate(-1.96 -2)"/><path id="Path_40" data-name="Path 40" class="cls-3" d="M1416.81,290.88c.76-3.77,2-9.88,2.83-13.62l11-51.61-12.48,58.46-1.37,6.77Z" transform="translate(-1.96 -2)"/><path id="Path_41" data-name="Path 41" class="cls-3" d="M1367.68,124.58c-.76,3.64-1.74,8.24-2.39,11.29l-27.43,128.46L1366.75,129l.93-4.44Z" transform="translate(-1.96 -2)"/><path id="Path_42" data-name="Path 42" class="cls-4" d="M1637.65,160.28l-3.18-13.14-3.15-13.47-1.6-6.82c-6.23-24.24-24.55-38.23-64.31-38.23l-61.91-.06-57-.07h-64.15a9,9,0,0,0-8.46,6.85h0l-2.84,13.4-3.35,15.83-.93,4.43-28.88,135.32-27.42,128.46c-.82,3.77-1.1,8.4-.63,10.28s7.86,3.43,11.71,3.43h57.88c3.85,0,8.73-.7,10.83-1.54s5.2-8.42,6-12.19l10.29-50.89,10.3-50.88a.44.44,0,0,1,0-.1l1.37-6.77,12.48-58.46,11-51.63a9.07,9.07,0,0,1,8.45-6.83l182.1-.09a5.3,5.3,0,0,0,5.4-6.83Z" transform="translate(-1.96 -2)"/><path id="Path_43" data-name="Path 43" class="cls-4" d="M1872.08,41.42c-3.86,0-10.16,0-14,0h-58.28a14.93,14.93,0,0,0-11,5.79L1659.93,236.09c-2.18,3.18-4.67,2.71-5.52-1l-9.48-41.6a9.22,9.22,0,0,0-8.57-6.83H1553.5c-3.85,0-6.13,3-5.08,6.73l37.12,130.06a30.7,30.7,0,0,1,.19,13.52l-16.19,63a5.19,5.19,0,0,0,3.3,6.55,5.24,5.24,0,0,0,2,.25h81.89a9.55,9.55,0,0,0,8.75-6.8l16.19-62.95a41.94,41.94,0,0,1,5.95-12.39L1896.83,46.83c2.33-3.07,1.07-5.58-2.78-5.55l-22,.14Z" transform="translate(-1.96 -2)"/><path id="Path_44" data-name="Path 44" class="cls-4" d="M1213.77,204.28v-.08a8.43,8.43,0,0,1-8.19,7.25h-105c-3.63,0-5.48-2.47-5-5.52a1,1,0,0,1,.1-.24l-.06,0c0-.12,0-.23.05-.35l.48-1.79c10-26.67,30.47-44.18,68.88-44.18,43.24,0,51.68,21.12,48.74,44.88ZM1183,83c-134.85,0-166.8,81.85-184.72,164.46-17.93,84.2-16.39,162.92,123.14,162.92h22.11l16.74-.06h.28c36.86-.14,73.81-.41,88.78-.54a9.07,9.07,0,0,0,8.36-6.88l5.65-27.61,1.1-5.38,6.74-32.93a5.48,5.48,0,0,0-4-6.69,5.33,5.33,0,0,0-1.64-.17H1140.1c-49.89,0-64.71-13.26-59.25-52.23h200.53l0,0,.14,0a8.28,8.28,0,0,0,7.3-5.18,7.57,7.57,0,0,0,.48-1.75l0,0C1319,158.66,1310.5,83,1183,83Z" transform="translate(-1.96 -2)"/><path id="Path_45" data-name="Path 45" class="cls-4" d="M545.6,203.89l-1.9,6.72v0l-15.15,53.66-15.13,53.65a9.82,9.82,0,0,1-8.92,6.74H424.36c-60.79,0-75.59-47.54-60.79-117.67,14.8-71.74,43.82-116.32,103.65-120.84C549,80,565.34,137.51,545.6,203.89Zm55,116.66s37.78-91.74,46.36-144.73C658.67,104.88,623.16,2,486,2,349.55,2,290.32,100.22,267.72,207c-22.6,107.55,7,201.87,142.64,201.1l107-.4,100-.36a9.67,9.67,0,0,0,8.77-6.81l17.42-66.45a5.18,5.18,0,0,0-3.29-6.56,5.09,5.09,0,0,0-1.94-.26l-16.7-.1-16.69-.1c-3.28,0-5.16-2.14-4.76-4.95a6.61,6.61,0,0,1,.41-1.57Z" transform="translate(-1.96 -2)"/><path id="Path_46" data-name="Path 46" class="cls-3" d="M1275.86,259.1a4.6,4.6,0,1,1-4.61-4.59h0A4.59,4.59,0,0,1,1275.86,259.1Z" transform="translate(-1.96 -2)"/></g></g></g></g></g></svg>